<?xml version="1.0" encoding="UTF-8"?>
<svg version="1.1" xmlns="http://www.w3.org/2000/svg" width="1024" height="1024">
<path d="M0 0 C337.92 0 675.84 0 1024 0 C1024 337.92 1024 675.84 1024 1024 C686.08 1024 348.16 1024 0 1024 C0 686.08 0 348.16 0 0 Z " fill="#0E151A" transform="translate(0,0)"/>
<path d="M0 0 C1.20483553 -0.00297112 2.40967107 -0.00594224 3.65101677 -0.0090034 C6.98742647 -0.0161682 10.32378466 -0.0188615 13.66019833 -0.01960087 C17.26149324 -0.0214559 20.86277708 -0.02900532 24.46406555 -0.03573608 C32.33376245 -0.04929964 40.20345424 -0.05534056 48.07316089 -0.05974674 C52.98764895 -0.06251156 57.90213505 -0.06674926 62.81662178 -0.07125092 C76.42641673 -0.0834392 90.03621011 -0.09374055 103.6460104 -0.09712601 C104.51648406 -0.09734557 105.38695772 -0.09756514 106.28380937 -0.09779136 C107.15634221 -0.09800964 108.02887505 -0.09822791 108.92784828 -0.09845281 C110.6958818 -0.09889627 112.46391533 -0.09934283 114.23194885 -0.09979248 C115.54745212 -0.10012463 115.54745212 -0.10012463 116.8895312 -0.10046348 C131.10756939 -0.10441352 145.32555639 -0.1218758 159.5435748 -0.145152 C174.14469082 -0.16886237 188.74578115 -0.18132765 203.34691674 -0.18249393 C211.54354617 -0.18341067 219.74010885 -0.18916318 227.93671989 -0.20731354 C234.91413579 -0.22271001 241.89146426 -0.22783754 248.86889391 -0.21957543 C252.42826206 -0.2156678 255.98745412 -0.21660405 259.54680061 -0.23063278 C263.40643926 -0.24570603 267.26582986 -0.23750888 271.12548828 -0.22705078 C272.81050899 -0.23913539 272.81050899 -0.23913539 274.52957052 -0.25146413 C281.33091683 -0.20827841 286.80811118 0.17263706 292.08717346 4.89434814 C292.55381409 5.49118408 293.02045471 6.08802002 293.50123596 6.70294189 C294.22440002 7.60206299 294.22440002 7.60206299 294.96217346 8.51934814 C297.1795182 11.60726112 297.26092584 13.64747514 297.28736877 17.41290283 C297.29697632 18.51454773 297.30658386 19.61619263 297.31648254 20.7512207 C297.32285736 22.54490082 297.32285736 22.54490082 297.32936096 24.37481689 C297.33506104 25.60073547 297.34076111 26.82665405 297.34663391 28.08972168 C297.35609536 30.68897638 297.36262242 33.28824314 297.36647034 35.88751221 C297.37301681 39.86000625 297.40717005 43.83213152 297.43873596 47.80450439 C297.44526723 50.32793882 297.45051722 52.85137695 297.45436096 55.37481689 C297.46670776 56.56250671 297.47905457 57.75019653 297.49177551 58.97387695 C297.47298393 65.95085198 297.17447704 70.80225944 292.28701782 76.15460205 C282.82292065 84.8524635 267.84537348 82.64739397 255.95826721 82.53106689 C253.70954901 82.52359638 251.46082424 82.51790728 249.21209717 82.51391602 C243.32493266 82.4987236 237.43816976 82.45949713 231.55116272 82.4151001 C225.5313205 82.37400902 219.5114127 82.35587554 213.49147034 82.33575439 C201.70288349 82.29299648 189.91459327 82.22482315 178.12623596 82.14044189 C178.12813456 82.76834281 178.13003317 83.39624373 178.1319893 84.04317194 C178.24386645 121.25317872 178.32966202 158.46316062 178.38156261 195.67330113 C178.38781618 200.14061982 178.39428779 204.60793817 178.40089417 209.07525635 C178.40220572 209.96462338 178.40351727 210.85399041 178.40486857 211.77030795 C178.42662836 226.1730529 178.46605304 240.57569813 178.51199994 254.97838391 C178.55874863 269.75558365 178.586528 284.53273114 178.59667844 299.31000179 C178.6035409 308.42928008 178.6252194 317.54827648 178.6658183 326.667468 C178.69223707 332.91985337 178.70023894 339.1720929 178.69374285 345.42453004 C178.69053856 349.03259037 178.69546881 352.64015796 178.72226334 356.2481308 C178.75110795 360.16074557 178.74117758 364.07271833 178.72750854 367.98542786 C178.74207275 369.12454056 178.75663696 370.26365326 178.77164251 371.43728453 C178.70607264 378.36617598 177.84205911 381.97845931 173.12623596 387.14044189 C165.5254173 393.0978403 155.68445834 392.43586455 146.53639221 392.40606689 C145.23729416 392.40798035 143.93819611 392.4098938 142.59973145 392.41186523 C139.86055194 392.41479943 137.12150363 392.41057491 134.38233948 392.40118408 C130.89478868 392.3898018 127.40754622 392.39635196 123.92000675 392.40832901 C120.56294479 392.41735113 117.2059629 392.41100791 113.84889221 392.40606689 C111.98757408 392.41213959 111.98757408 392.41213959 110.08865356 392.41833496 C92.52540984 392.32408094 92.52540984 392.32408094 86.62623596 386.70294189 C85.97654846 386.10610596 85.32686096 385.50927002 84.65748596 384.89434814 C81.98904307 381.83789187 82.00156397 378.98183553 82.00318813 375.1017046 C82.00020156 373.53044196 82.00020156 373.53044196 81.99715465 371.92743665 C82.00006749 370.77278163 82.00298034 369.61812662 82.00598145 368.42848206 C82.00512702 367.20493663 82.0042726 365.9813912 82.00339228 364.72076863 C82.00202696 361.31845477 82.00516363 357.91619807 82.01017034 354.5138911 C82.01447986 350.84724291 82.01302806 347.18059655 82.01226807 343.51394653 C82.01174315 337.15918368 82.01488658 330.80443107 82.02050591 324.44967079 C82.02862528 315.26170033 82.03123658 306.07373483 82.0324939 296.88576116 C82.03468373 281.97968513 82.04134195 267.07361457 82.05079651 252.1675415 C82.05997241 237.68577095 82.06705237 223.20400188 82.07130432 208.722229 C82.07156704 207.8299055 82.07182977 206.93758199 82.07210045 206.01821838 C82.07340547 201.54179298 82.07466918 197.06536758 82.07591236 192.58894217 C82.08628282 155.43943822 82.10389927 118.28994048 82.12623596 81.14044189 C80.87057831 81.15376556 79.61492065 81.16708923 78.32121277 81.18081665 C66.46323161 81.3026714 54.6053782 81.39249789 42.746912 81.45131493 C36.65091901 81.48257058 30.5554332 81.52493936 24.45973206 81.59307861 C18.57229533 81.6584748 12.68534512 81.69419128 6.79757309 81.70970535 C4.55614442 81.72075522 2.3147411 81.74233322 0.07352066 81.77482224 C-21.11247811 82.06960442 -21.11247811 82.06960442 -28.20594788 76.84127808 C-32.83930182 72.11619134 -35.95764778 66.81250541 -36.05076599 60.10308838 C-36.06360123 59.29472031 -36.07643646 58.48635223 -36.08966064 57.65348816 C-36.10074104 56.34572166 -36.10074104 56.34572166 -36.11204529 55.01153564 C-36.12415291 53.65512718 -36.12415291 53.65512718 -36.13650513 52.27131653 C-36.15033949 50.3539318 -36.16106454 48.43652251 -36.16893005 46.519104 C-36.18041262 44.57078772 -36.20080491 42.62250196 -36.23045349 40.67437744 C-36.54630242 19.9183388 -36.54630242 19.9183388 -31.87376404 12.14044189 C-31.33751404 11.23294189 -30.80126404 10.32544189 -30.24876404 9.39044189 C-21.05451772 0.68010327 -12.10502171 -0.00931858 0 0 Z " fill="#E19A1A" transform="translate(511.87376403808594,310.85955810546875)"/>
<path d="M0 0 C1.96321701 -0.02398109 1.96321701 -0.02398109 3.96609497 -0.04844666 C5.39389658 -0.05482619 6.82170289 -0.06021804 8.24951172 -0.06469727 C9.72199593 -0.0736715 11.19447925 -0.08279348 12.66696167 -0.09205627 C15.75537322 -0.10853963 18.84367652 -0.11624439 21.93212891 -0.11914062 C25.86619137 -0.12450466 29.79921732 -0.16210343 33.73298836 -0.20788479 C36.77702418 -0.23782156 39.82081628 -0.24486785 42.86498642 -0.24586678 C44.31371653 -0.25004113 45.76244927 -0.26236217 47.21103287 -0.28338432 C55.66473797 -0.39623701 63.70158125 -0.28780509 70.55419922 5.30639648 C75.52339286 10.86754024 75.1083037 16.20459876 75.03521729 23.41708374 C75.03863498 24.647276 75.04205268 25.87746825 75.04557395 27.14493906 C75.05101844 30.55219944 75.03853823 33.95853831 75.0184617 37.36568713 C75.00117286 41.04250724 75.00703441 44.71929936 75.0100708 48.39614868 C75.01216726 54.76401879 74.99962721 61.13172484 74.97711945 67.49955368 C74.94459838 76.706314 74.93419233 85.91299507 74.92916748 95.1198066 C74.92041499 110.05753647 74.89380067 124.99517892 74.85595703 139.93286133 C74.81923575 154.44262251 74.79092456 168.95235993 74.77392578 183.4621582 C74.77234944 184.8039417 74.77234944 184.8039417 74.77074125 186.17283194 C74.76552107 190.66042936 74.76046625 195.14802695 74.75549364 199.63562465 C74.71403304 236.85927698 74.64358587 274.08282992 74.55419922 311.30639648 C75.78499867 311.30086573 75.78499867 311.30086573 77.04066277 311.29522324 C97.03088739 311.20678215 117.02107817 311.14064308 137.01145744 311.0991478 C146.67877109 311.07854622 156.34595392 311.05047169 166.01318359 311.00463867 C174.44179281 310.96469719 182.87030726 310.9389462 191.29900849 310.93004251 C195.75957674 310.92484012 200.21987393 310.91266301 204.68035507 310.88347626 C208.88450034 310.85619143 213.0882646 310.84797769 217.29249001 310.85396576 C218.82991549 310.85287133 220.3673546 310.84499544 221.90470314 310.82957458 C240.59216183 310.65142425 240.59216183 310.65142425 247.51351738 317.1444664 C251.22993926 321.28684495 252.6744276 323.97142941 252.73120117 329.57885742 C252.74403641 330.68050232 252.75687164 331.78214722 252.77009583 332.91717529 C252.78117622 334.71085541 252.78117622 334.71085541 252.79248047 336.54077148 C252.80055222 337.76669006 252.80862396 338.99260864 252.81694031 340.25567627 C252.83079159 342.85492534 252.84150905 345.45419269 252.84936523 348.0534668 C252.86257979 352.0260772 252.91044676 355.99807431 252.95458984 359.97045898 C252.96471731 362.49389036 252.97323324 365.01732881 252.97998047 367.54077148 C252.99748856 368.7284613 253.01499664 369.91615112 253.03303528 371.13983154 C253.01637111 377.48667085 252.90230509 381.51694152 248.55419922 386.30639648 C246.87841797 387.69702148 246.87841797 387.69702148 245.24169922 388.55639648 C244.70931641 388.85030273 244.17693359 389.14420898 243.62841797 389.44702148 C237.24136904 392.09325644 231.65924538 392.59461372 224.81350708 392.56036377 C223.36848322 392.56504374 223.36848322 392.56504374 221.89426696 392.56981826 C218.67554229 392.5777771 215.45700724 392.57148275 212.23828125 392.56518555 C209.92675669 392.56789638 207.615233 392.57145783 205.30371094 392.57580566 C199.03097239 392.58492194 192.75829964 392.58138823 186.48555994 392.57504749 C179.9180957 392.56998238 173.35063707 392.57468049 166.78317261 392.57781982 C155.04571639 392.58209131 143.30828783 392.5754766 131.57083641 392.56530115 C120.94011309 392.5563702 110.30943347 392.55791467 99.67871094 392.56713867 C87.32182626 392.57785546 74.96496944 392.58181809 62.60808074 392.57591414 C56.07139339 392.57279886 49.5347361 392.57237289 42.99805069 392.57898712 C36.85028851 392.58477321 30.70260865 392.58074046 24.55485535 392.56919861 C22.30105094 392.56655856 20.04723958 392.5673059 17.79343796 392.57172394 C14.71181861 392.57720679 11.63046139 392.57031188 8.54885864 392.56036377 C7.66158526 392.56482521 6.77431187 392.56928666 5.86015141 392.5738833 C-1.02679634 392.53090192 -9.1115321 392.40670873 -14.38330078 387.43139648 C-15.20121094 386.69276367 -15.20121094 386.69276367 -16.03564453 385.93920898 C-19.30059563 382.15873929 -19.69681968 379.02187083 -19.70306969 374.08377266 C-19.70951858 372.79761909 -19.71596747 371.51146551 -19.72261178 370.18633759 C-19.7196694 368.75590801 -19.71653395 367.32547883 -19.71322632 365.89505005 C-19.7169617 364.37794514 -19.72156277 362.86084216 -19.72695696 361.34374225 C-19.73921622 357.16856217 -19.73892307 352.99346204 -19.73656821 348.81826806 C-19.73616079 344.31782811 -19.74719207 339.81741404 -19.75668335 335.31698608 C-19.77331014 326.49759266 -19.77879365 317.67822597 -19.77990811 308.85881819 C-19.78085775 301.69172163 -19.78496383 294.5246339 -19.79130936 287.35754013 C-19.80892602 267.04735177 -19.81814751 246.73718456 -19.81664841 226.4269885 C-19.8165685 225.33161208 -19.81648858 224.23623566 -19.81640625 223.10766602 C-19.81632449 222.01095565 -19.81624273 220.91424528 -19.81615849 219.78430127 C-19.81534537 202.00562481 -19.83448833 184.22703304 -19.86268298 166.44838108 C-19.89138996 148.2030392 -19.9052245 129.95773866 -19.90349543 111.71237361 C-19.90283079 101.46508451 -19.90835542 91.21788418 -19.92985153 80.97061539 C-19.94803454 72.24666042 -19.95243439 63.52283447 -19.93883269 54.79886879 C-19.93228855 50.34647148 -19.93223774 45.8943219 -19.94953918 41.44194794 C-19.96521133 37.36701014 -19.96246672 33.2925177 -19.94497092 29.21759115 C-19.94188805 27.74251083 -19.94558168 26.26739774 -19.95669107 24.79235603 C-19.97078502 22.78851635 -19.95785077 20.78454101 -19.94357872 18.78070259 C-19.94401346 17.66725255 -19.94444819 16.55380251 -19.9448961 15.40661156 C-19.14832378 10.45856772 -16.60761954 7.35203337 -12.94580078 4.05639648 C-8.43440713 0.89842093 -5.57639681 0.0515389 0 0 Z " fill="#E29A1A" transform="translate(280.44580078125,310.693603515625)"/>
</svg>
